# xmcd
#
# Track frame offsets: 
#        150
#        27235
#        53798
#        77308
#        100870
#        125105
#        145985
#        173106
#        195327
#        219318
#
# Disc length: 3347 seconds
#
# Revision: 0
# Processed by: cddbd v1.5.2PL0 Copyright (c) Steve Scherf et al.
# Submitted via: ExactAudioCopy v1.0b3
#
DISCID=800d110a
DTITLE=Duy Khanh - Nam 2000 Nam
DYEAR=1900
DGENRE=
TTITLE0=Nam 2000 nam
TTITLE1=Thuong may cho vua
TTITLE2=Nho thanh do
TTITLE3=Hoang hon tren bai bien
TTITLE4=Con duong mang ten em
TTITLE5=Bong nho duong chieu
TTITLE6=Bai di ca cho em
TTITLE7=Cho nguoi tinh nho
TTITLE8=Hay yeu toi
TTITLE9=May dau nui
EXTD=
EXTT0=
EXTT1=
EXTT2=
EXTT3=
EXTT4=
EXTT5=
EXTT6=
EXTT7=
EXTT8=
EXTT9=
PLAYORDER=
